<!DOCTYPE svg PUBLIC "-//W3C//DTD SVG 1.1//EN" "http://www.w3.org/Graphics/SVG/1.1/DTD/svg11.dtd">
<!-- Uploaded to: SVG Repo, www.svgrepo.com, Transformed by: SVG Repo Mixer Tools -->
<svg version="1.1" id="Uploaded to svgrepo.com" xmlns="http://www.w3.org/2000/svg" xmlns:xlink="http://www.w3.org/1999/xlink" width="800px" height="800px" viewBox="0 0 32 32" xml:space="preserve" fill="#000000">
<g id="SVGRepo_bgCarrier" stroke-width="0"/>
<g id="SVGRepo_tracerCarrier" stroke-linecap="round" stroke-linejoin="round"/>
<g id="SVGRepo_iconCarrier"> <style type="text/css"> .blueprint_een{fill:#ffffff;} .st0{fill:#ffffff;} </style> <path class="blueprint_een" d="M28,0H8L4.293,3.707C4.105,3.895,4,4.149,4,4.414V31c0,0.552,0.448,1,1,1h20 c0.552,0,1-0.448,1-1v-1l1-1h1c0.552,0,1-0.448,1-1V1C29,0.448,28.552,0,28,0z M6,4.828l2-2v24.465l-2,2V4.828z M6.707,30l2-2 h16.465l-2,2H6.707z M27,27H9V2h18V27z M23,9H13V8h10V9z M23,12H13v-1h10V12z M23,15H13v-1h10V15z"/> </g>
</svg>